<?xml version="1.0" encoding="UTF-8"?>
<!DOCTYPE svg PUBLIC "-//W3C//DTD SVG 1.1//EN" "http://www.w3.org/Graphics/SVG/1.1/DTD/svg11.dtd">
<!-- Creator: CorelDRAW 2020 (64 Bit) -->
<svg xmlns="http://www.w3.org/2000/svg" xml:space="preserve" width="47.59mm" height="10.727mm" version="1.1" style="shape-rendering:geometricPrecision; text-rendering:geometricPrecision; image-rendering:optimizeQuality; fill-rule:evenodd; clip-rule:evenodd"
viewBox="0 0 4139.58 933.08"
 xmlns:xlink="http://www.w3.org/1999/xlink"
 xmlns:xodm="http://www.corel.com/coreldraw/odm/2003">
 <defs>
  <style type="text/css">
   <![CDATA[
    .fil0 {fill:#201E1E;fill-rule:nonzero}
   ]]>
  </style>
 </defs>
 <g id="Camada_x0020_1">
  <metadata id="CorelCorpID_0Corel-Layer"/>
  <g id="_1735710114480">
   <path class="fil0" d="M122.94 374.32c-40.42,0.26 -80.74,0.23 -120.93,-0.08 -1.1,-0.01 -1.99,-0.9 -1.99,-2.01 0,0 0,0 0,0l0 -371.41c0,-0.46 0.37,-0.83 0.84,-0.83l371.69 0c1.11,0 2.01,0.9 2.01,2.01 0.03,39.93 -0.13,80.05 -0.48,120.35 -0.08,8.51 -3.21,24.47 -15.56,20.1 -13.7,-4.84 -26.84,-10.88 -41.94,-9.47 -17.62,1.66 -31.17,9.3 -40.62,22.9 -15.88,22.84 -12.19,53.39 8.66,71.66 20.62,18.07 43.82,15.87 67.73,6.16 18.53,-7.52 22.26,6.91 22.26,21.51 -0.03,38.02 -0.06,76.82 -0.11,116.38 0,1.36 -0.67,2.16 -1.99,2.42 -1.09,0.22 -2.51,0.33 -4.27,0.33 -35.4,0.17 -70.81,0.19 -106.22,0.1 -11.44,-0.04 -36.31,-0.6 -29,19.43 4.13,11.38 6.63,20 7.47,25.84 2.86,19.61 -2.58,35.76 -16.34,48.45 -8.73,8.06 -18.78,12.85 -30.13,14.35 -31.58,4.24 -58.38,-18.45 -60.65,-50.26 -1.07,-14.73 2.72,-24.76 8.79,-40.78 4.51,-11.94 -10.49,-17.21 -19.21,-17.16z"/>
   <path class="fil0" d="M558.16 251.84c-0.11,-11.01 -4.15,-23.84 -18.41,-18.73 -23.15,8.33 -40.39,13.41 -62.01,1.61 -28.31,-15.48 -35.35,-52.43 -18.57,-78.11 8.81,-13.47 21.61,-21.24 38.38,-23.3 6.32,-0.77 13.24,0.13 19.9,0.97 8.19,1 17.43,5.33 25.22,8.17 2.67,0.97 6.61,0.7 8.92,-1.54 7.71,-7.56 6.65,-17.62 6.66,-29.64 0.07,-35.87 0.11,-71.94 0.16,-108.2 0,-1.69 1.37,-3.05 3.05,-3.05l369.95 0c1.29,0 1.94,0.63 1.94,1.91l-0.03 370.84c0,1.06 -0.52,1.59 -1.57,1.59 -40.5,0.24 -81.07,0.24 -121.68,0.02 -6.13,-0.04 -12.97,-0.87 -17.19,-5.28 -3.22,-3.36 -3.81,-7.5 -1.77,-12.4 6.44,-15.47 10.84,-29.36 7.96,-45.24 -5.91,-32.79 -39.63,-54.23 -71.68,-42.09 -22.76,8.6 -36.37,29.67 -35.59,54.19 0.37,11.79 4.43,21.26 8.75,33.16 1.64,4.52 1.22,8.43 -1.27,11.71 -4.81,6.32 -14.6,6.01 -22.32,6.04 -37.61,0.1 -76.25,0.1 -115.93,-0.03 -1.13,-0.01 -1.83,-0.57 -2.09,-1.68 -0.29,-1.28 -0.42,-2.92 -0.4,-4.95 0.01,-51.03 -0.11,-89.68 -0.37,-115.95z"/>
   <path class="fil0" d="M1941 248.88c7.45,49.48 -28.08,75.75 -72.2,82.02 -37.22,5.28 -78.56,3.17 -115.45,-4.91 -0.64,-0.15 -0.97,-0.54 -0.97,-1.2l0 -53.2c0,-0.84 0.42,-1.17 1.24,-1.01 14.38,3.01 24.76,4.67 31.11,4.99 18.94,1 38.44,2.68 57.37,1.95 11.39,-0.44 22.36,-0.27 33.45,-3.46 7.05,-2.01 13.97,-8.05 8.59,-15.82 -6.42,-9.22 -21.45,-14.44 -31.85,-17.08 -20.74,-5.28 -43.83,-9.08 -62.72,-19.19 -27.04,-14.48 -39.13,-37.44 -36.26,-68.86 7.18,-78.68 127.21,-67.93 179.76,-54.54 0.59,0.15 0.89,0.52 0.89,1.14l-0.02 53.03c0,0.64 -0.32,0.9 -0.95,0.79 -11.83,-2.31 -23.72,-4.04 -35.67,-5.2 -26.38,-2.57 -51.14,-3.64 -76.34,-0.3 -12.7,1.66 -16.17,14.95 -7.21,23.07 7.45,6.75 25.59,12.02 35.48,14.3 17.68,4.07 32.95,8.27 45.82,12.6 24,8.08 41.97,24.76 45.92,50.88z"/>
   <path class="fil0" d="M3892.94 212.3c-0.39,-81.24 62.14,-130.62 140.58,-121.79 48.69,5.49 86.29,34.01 100.61,82.1 7.72,25.91 7.19,56.31 -1.24,82.01 -19.81,60.33 -81.77,86.92 -141.69,76.51 -61.07,-10.63 -97.98,-58.02 -98.27,-118.83zm187.48 -9.92c-0.34,-32.15 -26.5,-58.04 -58.65,-58.04 -0.2,0 -0.42,0 -0.62,0l-11.24 0.12c-32.16,0.34 -58.04,26.5 -58.04,58.65 0,0.2 0,0.42 0,0.62l0.18 16.69c0.33,32.15 26.5,58.04 58.64,58.04 0.2,0 0.42,0 0.62,0l11.25 -0.12c32.15,-0.33 58.04,-26.5 58.04,-58.64 0,-0.21 0,-0.42 0,-0.62l-0.17 -16.7z"/>
   <path class="fil0" d="M1240.01 268.22c0.3,1.97 0.69,1.99 1.18,0.06l34.44 -136.61c0.08,-0.35 0.41,-0.61 0.8,-0.62l82.03 0c0.55,0 0.89,0.26 1.02,0.79l32.65 135.72c0.58,2.44 1.07,2.42 1.49,-0.04l29.04 -175.08c0.1,-0.67 0.5,-1.01 1.18,-1.01l55.42 0c0.52,0 0.73,0.26 0.63,0.77l-44.02 238.49c-0.1,0.57 -0.43,0.85 -1,0.85l-85.28 0c-0.59,0 -0.96,-0.3 -1.08,-0.87l-30.51 -136.32c-0.44,-1.96 -0.9,-1.97 -1.36,-0.02l-32.45 136.37c-0.13,0.56 -0.49,0.84 -1.06,0.84l-90.05 0c-0.49,-0.01 -0.9,-0.36 -0.97,-0.84l-38.58 -238.78c0,-0.03 0,-0.05 0,-0.08 0,-0.23 0.18,-0.42 0.42,-0.42 0.01,0 0.01,0 0.01,0l58.38 -0.01c0.72,0 1.14,0.36 1.25,1.07l26.42 175.72z"/>
   <path class="fil0" d="M1587.73 239.53l0 36.7c0,0.41 0.32,0.73 0.73,0.73l118.19 0.01c0.4,0 0.73,0.32 0.73,0.73l-0.03 53.1c0,0.41 -0.33,0.73 -0.74,0.73l-176.9 0.03c-0.4,0 -0.73,-0.33 -0.73,-0.74l0 -238.64c0,-0.41 0.33,-0.73 0.73,-0.73l176.88 -0.01c0.41,0.01 0.73,0.33 0.73,0.74l0.04 53.1c0,0.41 -0.33,0.73 -0.73,0.73l-118.18 0.03c-0.41,0 -0.73,0.33 -0.73,0.73l0 36.7c0,0.41 0.32,0.73 0.73,0.73l94.6 0c0.41,0 0.73,0.33 0.73,0.74l0 53.1c0,0.41 -0.32,0.73 -0.73,0.73l-94.6 0.03c-0.41,0 -0.73,0.32 -0.73,0.73l0 0z"/>
   <path class="fil0" d="M2057.53 276.97l118.31 0c0.38,0 0.7,0.3 0.7,0.7l0 53.2c0,0.38 -0.31,0.7 -0.7,0.7l-176.98 0c-0.38,0 -0.7,-0.31 -0.7,-0.7l-0.02 -238.73c0,-0.38 0.31,-0.7 0.7,-0.7l57.24 0.03c0.38,0 0.7,0.3 0.7,0.7l0.05 184.11c0,0.38 0.31,0.7 0.7,0.7l0 0z"/>
   <path class="fil0" d="M2288.58 146.69l0 36.86c0,0.37 0.3,0.65 0.66,0.65l94.75 0c0.36,0 0.65,0.3 0.65,0.66l0 53.28c0,0.37 -0.3,0.65 -0.65,0.65l-94.75 0.01c-0.37,0 -0.66,0.3 -0.66,0.65l0 36.86c0,0.36 0.3,0.65 0.66,0.65l118.21 0.01c0.36,0 0.65,0.29 0.65,0.65l0 53.28c0,0.37 -0.3,0.66 -0.65,0.66l-177.06 0c-0.37,0 -0.65,-0.3 -0.65,-0.66l-0.01 -238.8c0.01,-0.36 0.3,-0.65 0.66,-0.65l177.06 -0.01c0.36,0.01 0.65,0.3 0.65,0.66l0 53.28c0,0.37 -0.3,0.66 -0.65,0.66l-118.21 0c-0.37,0 -0.66,0.3 -0.66,0.65z"/>
   <path class="fil0" d="M2527.76 242.28c-48.53,-11.91 -74.85,-52.18 -74.27,-100.59 0.19,-16.47 0.37,-32.92 0.54,-49.38 0,-0.57 0.3,-0.87 0.89,-0.87l56.88 0c0.62,0 0.93,0.31 0.95,0.93 0.05,18.59 0.05,37.12 0.02,55.58 -0.08,34.11 30.51,48.82 59.95,41.51 21.47,-5.31 30.01,-23.71 30.12,-44.39 0.11,-17.68 0.13,-35.3 0.03,-52.86 0,-0.43 0.35,-0.77 0.77,-0.77l56.97 0c0.63,0 0.95,0.32 0.97,0.97 0.17,14.2 0.18,28.36 0.05,42.49 -0.15,17.3 -1.26,30.11 -3.34,38.4 -8.21,32.64 -34.9,61.58 -69.54,68.94 -0.66,0.16 -1.11,0.74 -1.1,1.41l0.02 86.95c0,0.63 -0.31,0.95 -0.95,0.95l-57.45 -0.03c-0.25,0 -0.46,-0.2 -0.46,-0.46l0 -87.46c0,-0.63 -0.43,-1.18 -1.04,-1.33l-0.01 0z"/>
   <path class="fil0" d="M3005.9 208.94c3.46,3.02 7.56,6.07 10.3,9.26 38.07,43.98 4.44,101.47 -46.34,111.71 -5.4,1.1 -14.79,1.64 -28.16,1.62 -37.67,0 -75.31,0 -112.91,0 -0.28,0 -0.5,-0.22 -0.5,-0.5l0 -238.61c0,-0.62 0.3,-0.93 0.92,-0.93 39.39,-0.11 78.69,-0.1 117.91,0.02 15.01,0.06 29.2,3.54 41.89,11.64 36.98,23.56 48.94,70.28 16.81,104.18 -0.52,0.57 -0.5,1.1 0.08,1.6zm-118.86 -62.05l-0.12 36.22c0,0.58 0.48,1.06 1.07,1.06l58.3 0.21c10.82,0 19.55,-8.58 19.55,-19.15 0,-0.01 0,-0.01 0,-0.01l0 0.03c-0.01,-10.64 -8.73,-19.21 -19.48,-19.21 0,0 -0.01,0 -0.01,0l-58.24 -0.22c-0.59,0 -1.06,0.48 -1.06,1.06zm-0.12 93.46l-0.07 35.01c0,0.99 0.8,1.8 1.79,1.8l65.39 0.11c0.03,0 0.04,0 0.04,0 10.8,0 19.57,-8.56 19.57,-19.11l0 -0.35c0,-0.03 0,-0.04 0,-0.04 0,-10.55 -8.76,-19.11 -19.57,-19.11l-65.36 -0.11c-0.99,0 -1.8,0.8 -1.8,1.8z"/>
   <path class="fil0" d="M3148.06 220.56l0.02 109.57c0,0.94 -0.47,1.41 -1.41,1.41l-56.49 0c-0.63,0 -0.95,-0.31 -0.95,-0.94l0 -238.65c0,-0.29 0.23,-0.52 0.52,-0.52 37.94,-0.01 75.92,0.12 113.94,0.41 24.36,0.18 44.3,8.46 59.81,24.85 38.09,40.26 24.68,102.68 -25.26,125.36 -0.4,0.18 -0.65,0.58 -0.65,1.02 0,0.23 0.07,0.47 0.21,0.66l64.89 86.89c0.45,0.62 0.3,0.92 -0.48,0.92l-68.72 0c-1.17,0 -2.08,-0.46 -2.77,-1.38l-81.48 -109.98c-0.79,-1.07 -1.19,-0.94 -1.19,0.39zm0 -72.53l-0.08 54.84c0,0 0,0 0,0 0,0.63 0.5,1.15 1.14,1.16l55.03 0.1c0.05,0 0.05,0 0.06,0 15.11,0 27.36,-11.96 27.37,-26.71l0 -3.67c0,-0.04 0,-0.05 0,-0.05 0,-14.75 -12.25,-26.72 -27.36,-26.73l-54.99 -0.1c-0.01,0 -0.01,0 -0.02,0 -0.63,0 -1.16,0.52 -1.16,1.16 0,0 0,0 0,0l0 0.01z"/>
   <path class="fil0" d="M3433.7 275.84c34.86,11.52 64.24,-6.69 64.05,-44.32 -0.26,-46.3 -0.4,-92.64 -0.41,-139.02 0,-0.7 0.36,-1.04 1.06,-1.04l56.53 0c0.71,0 1.08,0.35 1.08,1.06 0.11,47.16 0.17,94.31 0.16,141.42 -0.04,132.92 -207.76,133.15 -207.88,-0.46 -0.03,-47.23 -0.01,-94.46 0.06,-141.67 0,-0.23 0.12,-0.35 0.37,-0.35l57.86 0c0.29,0 0.52,0.23 0.52,0.52 -0.03,47.92 -0.03,95.89 0,143.91 0.02,17.38 9.18,34.19 26.61,39.95z"/>
   <path class="fil0" d="M3773.72 230.23l0 -138.15c0,-0.34 0.28,-0.62 0.62,-0.62l57.44 0c0.34,0 0.62,0.28 0.62,0.62l0 238.83c0,0.34 -0.28,0.62 -0.62,0.62l-57.8 0c0,0 -0.01,0 -0.01,0 -0.21,0 -0.4,-0.1 -0.51,-0.27l-92.74 -138.67c-0.11,-0.18 -0.3,-0.29 -0.52,-0.29 -0.34,0 -0.62,0.27 -0.62,0.61l0 138c0,0.34 -0.28,0.62 -0.62,0.62l-57.64 0c-0.34,0 -0.62,-0.28 -0.62,-0.62l0.02 -238.83c0,-0.34 0.28,-0.62 0.62,-0.62l57.86 0c0,0 0,0 0.01,0 0.2,0 0.4,0.1 0.51,0.27l92.87 138.83c0.11,0.18 0.31,0.29 0.52,0.29 0.34,0 0.62,-0.27 0.62,-0.61l0 -0.01z"/>
   <path class="fil0" d="M2673.8 449.07l-30.51 40.67c-0.13,0.17 -0.33,0.27 -0.54,0.27l-49.53 0c-0.37,0 -0.68,-0.3 -0.68,-0.68 0,-0.14 0.04,-0.29 0.13,-0.4l30.51 -40.68c0.13,-0.17 0.33,-0.27 0.55,-0.27l49.53 0c0.37,0 0.68,0.3 0.68,0.68 0,0.15 -0.05,0.29 -0.14,0.4l0 0.01z"/>
   <path class="fil0" d="M558.84 808.88c0.16,-16.74 8.97,-21.89 23.87,-15.17 26.8,12.1 57.71,6.52 74.75,-17.28 6.45,-8.99 9.58,-19.07 9.41,-30.23 -0.5,-34.01 -27.87,-58.29 -62.36,-54.34 -10.01,1.16 -20.08,5.37 -29.97,8.81 -4.37,1.52 -8.06,0.87 -10.99,-2.97 -3.37,-4.42 -5.05,-9.07 -5.06,-13.95 -0.18,-40.42 -0.2,-80.89 -0.06,-121.4 0.02,-2.73 1.38,-4.1 4.11,-4.1 37.96,-0.08 75.77,-0.11 113.46,-0.1 8.99,0 23.3,0.3 24.95,-11.21 0.38,-2.71 -0.6,-7 -2.96,-12.89 -12.06,-30.26 -7.19,-60.97 21.34,-77.61 7.67,-4.48 16.16,-6.73 25.45,-6.76 36.23,-0.08 61.32,32.4 54.03,67.39 -1.05,5.14 -2.77,10.7 -5.14,16.67 -2.28,5.75 -3.41,9.57 -3.4,11.46 0.06,9.11 10.19,12.93 18.11,12.95 39.29,0.06 78.59,0.08 117.88,0.03 2.2,0 3.91,0.2 5.11,0.6 1.32,0.45 1.99,1.37 1.99,2.77l-0.03 368.68c0,1.57 -1.26,2.84 -2.82,2.84l-369.01 0c-1.73,0 -3.15,-1.41 -3.15,-3.15 -0.05,-40.44 0.12,-80.79 0.5,-121.05z"/>
   <path class="fil0" d="M2106.63 614.21l79.12 109.2c0.41,0.58 0.62,1.24 0.62,1.96 0.03,16.49 0.03,32.95 0.02,49.37 -0.01,10.97 -0.89,19.46 -2.63,25.5 -17.21,59.21 -101.7,60.52 -119.53,0.07 -1.77,-5.98 -2.66,-14.54 -2.66,-25.64 0,-13.55 0,-27.1 0.02,-40.64 0,-0.65 0.32,-0.98 0.98,-0.98l42.44 0c0.6,0 0.9,0.3 0.9,0.9 0.1,16.03 0.11,31.98 0.06,47.87 -0.1,25.2 36,25.53 36.12,0.5 0.07,-14.2 0.09,-28.24 0.06,-42.14 0,-0.5 -0.15,-0.96 -0.44,-1.36l-79.58 -109.84c-0.32,-0.44 -0.51,-1.01 -0.52,-1.58 -0.05,-16.76 -0.05,-33.58 0,-50.44 0.03,-10.83 0.95,-19.08 2.77,-24.76 19.01,-59.59 104.89,-57.43 120.02,3.95 1.17,4.75 1.82,11.94 1.91,21.56 0.17,14.07 0.17,28.15 0,42.22 -0.01,0.69 -0.36,1.03 -1.04,1.03l-42.03 0c-0.7,0 -1.04,-0.35 -1.04,-1.04 -0.1,-13.05 -0.11,-26.07 -0.03,-39.06 0.05,-7.88 -0.44,-13.27 -1.49,-16.17 -6.72,-18.63 -34.28,-13.33 -34.61,7.79 -0.21,13.36 -0.21,26.7 0,40.04 0.01,0.63 0.2,1.2 0.57,1.7z"/>
   <path class="fil0" d="M3199.77 669.74l-23.62 0c-0.63,0 -0.95,-0.32 -0.95,-0.97l-0.02 -42.54c0,-0.66 0.33,-0.98 0.98,-0.98l68.49 0.13c0.51,0 0.77,0.26 0.77,0.77 0.11,53.02 0.21,106.19 0.29,159.53 0.06,34.55 -22.9,58.05 -56.24,60.79 -38.67,3.19 -69.4,-20.36 -69.34,-60.79 0.09,-65.19 0.14,-130.38 0.15,-195.57 0,-19.89 0.7,-32.46 2.11,-37.71 4.67,-17.34 18.72,-32.38 36.19,-38.9 9.68,-3.62 22.03,-3.58 32.56,-2.97 27.97,1.57 47.85,21.23 53.63,48.49 1.22,5.65 1.41,16.15 0.58,31.51 -0.03,0.62 -0.37,0.93 -0.98,0.93l-42.61 0c-0.66,0 -0.98,-0.33 -0.98,-1.01 0.05,-6.4 0.03,-12.77 -0.04,-19.11 -0.11,-9.12 -2.26,-15.49 -12.02,-16.44 -15.73,-1.51 -24.11,0.87 -24.11,17.74 0.01,70.15 0.01,140.3 0,210.43 0,5.47 0.57,9.38 1.7,11.71 4.79,9.78 27.13,10.33 32.39,1.12 1.35,-2.35 2.04,-6.06 2.04,-11.17 0.16,-38.02 0.15,-76.03 -0.02,-114.04 0,-0.64 -0.32,-0.97 -0.97,-0.97z"/>
   <path class="fil0" d="M2796.21 799.71l61.88 0c0.36,-0.01 0.65,0.29 0.65,0.65l-0.02 41.68c0,0.36 -0.3,0.65 -0.66,0.65l-104.82 -0.02c-0.36,0 -0.65,-0.3 -0.65,-0.65l0 -327.19c0,-0.37 0.3,-0.66 0.65,-0.66l41.65 0c0.37,0 0.65,0.3 0.65,0.66l0 284.21c0,0.36 0.3,0.65 0.66,0.65l0 0.01z"/>
   <path class="fil0" d="M2565.45 551.36c19.46,-42.8 79.22,-50.15 106.73,-10.52 9.86,14.19 11.13,27.23 11.15,46.21 0.04,64.29 0.06,128.57 0.06,192.84 0,23.56 -11.66,43.67 -31.91,55.31 -33.72,19.4 -77.26,1.31 -88.3,-35.64 -1.98,-6.66 -2.97,-18.26 -2.96,-34.8 0.03,-64.21 0.03,-128.41 0,-192.62 -0.01,-6.18 1.73,-13.11 5.22,-20.79zm74.41 24.5c0,-9.7 -7.87,-17.57 -17.57,-17.57l-0.54 0c-9.71,0 -17.57,7.87 -17.57,17.57l0 205.69c0,9.7 7.86,17.57 17.57,17.57l0.54 0c9.7,0 17.57,-7.87 17.57,-17.57l0 -205.69z"/>
   <path class="fil0" d="M3051.03 783.28c-0.02,36.27 -35.52,64.54 -70.66,59.06 -23.3,-3.65 -42.82,-20.18 -49.55,-42.96 -1.93,-6.53 -2.89,-17.99 -2.86,-34.36 0.08,-63.19 0.08,-126.34 0,-189.49 -0.05,-37.05 33.36,-65.13 69.63,-60.06 25.1,3.52 44.87,20.37 51.19,44.95 1.5,5.9 2.26,16.67 2.26,32.33 0,63.52 -0.01,127.02 -0.02,190.52zm-43.64 -207.42c-0.02,-9.68 -7.87,-17.52 -17.55,-17.52 -0.01,0 -0.02,0 -0.03,0l-0.62 0c-9.68,0.01 -17.52,7.86 -17.52,17.54 0,0.01 0,0.02 0,0.03l0.36 205.67c0.02,9.67 7.87,17.51 17.55,17.51 0.01,0 0.02,0 0.03,0l0.62 0c9.68,-0.02 17.52,-7.87 17.52,-17.54 0,-0.01 0,-0.03 0,-0.03l-0.36 -205.65z"/>
   <path class="fil0" d="M3429.64 812.44c-28.39,46.05 -97.96,38.46 -112.28,-14.42 -1.69,-6.21 -2.53,-17.39 -2.51,-33.54 0.03,-59.85 0.05,-119.7 0.03,-179.55 0,-12.4 0.84,-21.49 2.53,-27.25 8.35,-28.37 38.88,-46.51 67.12,-42.3 25.03,3.75 44.66,20.25 51.09,44.75 1.57,5.98 2.36,16.64 2.36,31.98 0.03,63.89 0.03,127.77 -0.02,191.65 0,10.13 -2.77,19.69 -8.32,28.68zm-34.96 -236.55c0,-0.01 0,-0.02 0,-0.03 0,-9.68 -7.84,-17.54 -17.52,-17.54l-0.62 0c-0.01,-0.01 -0.02,-0.01 -0.03,-0.01 -9.68,0 -17.54,7.85 -17.54,17.52l-0.37 205.7c0,0.01 0,0.02 0,0.03 0,9.68 7.84,17.54 17.52,17.54l0.62 0.01c0.01,-0.01 0.03,-0.01 0.03,-0.01 9.67,0 17.53,-7.84 17.54,-17.51l0.36 -205.7z"/>
   <path class="fil0" d="M2256.3 515.14l42.36 0c0.3,0 0.54,0.24 0.54,0.54l0 324.55c0,0.3 -0.24,0.54 -0.54,0.54l-42.36 0.01c-0.3,-0.01 -0.54,-0.24 -0.54,-0.55l0 -324.54c0,-0.3 0.24,-0.55 0.54,-0.55z"/>
   <path class="fil0" d="M1913.64 775.14l-0.03 66.17c0,0.61 -0.3,0.9 -0.89,0.9l-41.53 -0.02c-0.66,0 -0.98,-0.33 -0.98,-0.98l0 -324.14c0,-0.66 0.32,-0.99 0.98,-0.99 22.18,-0.06 44.26,0.07 66.2,0.41 21.69,0.34 37.61,9.57 47.79,27.7 4.8,8.55 7.18,18.35 7.18,29.41 -0.07,48.31 -0.08,96.62 -0.04,144.93 0.02,11.61 -3.27,22.15 -9.86,31.6 -17.75,25.49 -40.15,23.9 -67.87,24.04 -0.64,0.01 -0.97,0.33 -0.97,0.97zm24.69 -44.66c6.34,-0.57 10.55,-5.07 10.55,-11.46 0.04,-49.56 0.04,-99.12 0.02,-148.66 0,-4.14 -1.69,-7.17 -5.08,-9.08 -5.9,-3.35 -22.07,-1.72 -29.24,-1.66 -0.63,0 -0.95,0.31 -0.95,0.94l0 168.89c-0.01,0.56 0.43,1.02 0.99,1.04 12.11,0.34 20.01,0.34 23.7,0.01z"/>
   <path class="fil0" d="M2445.69 570.09c-7.77,-17.18 -33.81,-11.33 -33.81,6.9 -0.02,67.79 -0.02,135.59 0,203.4 0,23.62 36.66,23.92 35.75,-2.9 -0.15,-4.31 -0.12,-12.71 0.05,-25.16 0,-0.62 0.31,-0.93 0.93,-0.93l41.47 0c0.64,0 0.97,0.32 0.97,0.95 0.1,13.22 1,28.68 -1.47,40.45 -12.83,61.03 -100.22,66.42 -118.37,5.47 -1.85,-6.25 -2.79,-16.01 -2.8,-29.26 -0.01,-60.58 -0.01,-121.15 0,-181.73 0,-13.4 0.96,-23.05 2.86,-28.95 6.96,-21.53 25.74,-37.53 48.33,-40.95 19.93,-3.03 37.18,2.17 51.74,15.61 18.4,16.99 21.1,37.86 19.48,62.11 -0.03,0.5 -0.3,0.74 -0.79,0.74l-41.45 0c-0.66,0 -0.99,-0.34 -0.99,-1.01 0.06,-7.92 1.09,-18.16 -1.9,-24.73z"/>
   <path class="fil0" d="M127.02 558.87c8.52,0.7 17.97,5.7 14.92,16.1 -1.44,4.96 -3.03,9.86 -4.75,14.68 -5.65,15.94 -5.57,32.84 2.12,47.95 19.52,38.34 74.85,38.61 95.5,0.22 11.07,-20.61 6.38,-39.42 -1.56,-59.08 -6.29,-15.5 7.36,-20.14 20.48,-20.22 38.8,-0.23 77.97,-0.36 117.51,-0.37 -0.03,0 -0.03,0 -0.03,0 1.77,-0.03 3.22,1.37 3.24,3.15 0,0 0,0.01 0,0.01 0.05,37.82 0.09,76.06 0.1,114.71 0,11.63 1.49,30.12 19,23.83 14.01,-5.03 25.34,-9.51 41.76,-8.12 6.82,0.58 15.28,3.86 20.5,6.82 28.91,16.41 36.65,57.88 13.87,82.76 -16.41,17.91 -41,22.94 -63.66,14.8 -4.99,-1.79 -10.03,-3.43 -15.11,-4.91 -8.7,-2.53 -14.07,3.53 -15.06,11.58 -0.55,4.61 -0.84,9.22 -0.87,13.83 -0.2,36.72 -0.33,73.44 -0.38,110.16 0,1.9 -0.17,3.51 -0.5,4.79 -0.27,1.02 -0.93,1.52 -1.99,1.52l-369.62 0c-1.37,0 -2.48,-1.1 -2.48,-2.47l-0.02 -369.03c0,-1.88 1.53,-3.4 3.43,-3.4l107.79 0.02c4.99,0 10.26,0.23 15.81,0.68z"/>
  </g>
 </g>
</svg>
