<?xml version="1.0" encoding="UTF-8"?>
<!DOCTYPE svg PUBLIC "-//W3C//DTD SVG 1.1//EN" "http://www.w3.org/Graphics/SVG/1.1/DTD/svg11.dtd">
<!-- Creator: CorelDRAW 2020 (64 Bit) -->
<svg xmlns="http://www.w3.org/2000/svg" xml:space="preserve" width="47.59mm" height="10.727mm" version="1.1" style="shape-rendering:geometricPrecision; text-rendering:geometricPrecision; image-rendering:optimizeQuality; fill-rule:evenodd; clip-rule:evenodd"
viewBox="0 0 4291.51 967.32"
 xmlns:xlink="http://www.w3.org/1999/xlink"
 xmlns:xodm="http://www.corel.com/coreldraw/odm/2003">
 <defs>
  <style type="text/css">
   <![CDATA[
    .fil0 {fill:#FEFEFE;fill-rule:nonzero}
   ]]>
  </style>
 </defs>
 <g id="Camada_x0020_1">
  <metadata id="CorelCorpID_0Corel-Layer"/>
  <g id="_1735711585440">
   <path class="fil0" d="M127.46 388.06c-41.91,0.27 -83.7,0.24 -125.37,-0.08 -1.14,-0.01 -2.07,-0.94 -2.07,-2.08 0,0 0,0 0,0l0 -385.04c0,-0.48 0.39,-0.86 0.87,-0.86l385.33 0c1.15,0 2.08,0.93 2.08,2.08 0.03,41.4 -0.14,82.99 -0.5,124.77 -0.08,8.82 -3.33,25.37 -16.13,20.84 -14.2,-5.01 -27.83,-11.28 -43.47,-9.82 -18.27,1.72 -32.31,9.64 -42.11,23.74 -16.47,23.68 -12.63,55.35 8.98,74.29 21.37,18.73 45.43,16.45 70.22,6.38 19.21,-7.79 23.08,7.16 23.08,22.3 -0.03,39.42 -0.06,79.63 -0.12,120.65 0,1.41 -0.69,2.24 -2.07,2.51 -1.13,0.23 -2.6,0.34 -4.43,0.34 -36.7,0.17 -73.4,0.2 -110.11,0.1 -11.86,-0.05 -37.64,-0.62 -30.06,20.15 4.28,11.8 6.87,20.73 7.75,26.79 2.97,20.33 -2.68,37.07 -16.94,50.23 -9.05,8.36 -19.47,13.32 -31.24,14.88 -32.73,4.39 -60.52,-19.13 -62.88,-52.1 -1.11,-15.27 2.82,-25.66 9.11,-42.27 4.67,-12.38 -10.88,-17.85 -19.91,-17.79z"/>
   <path class="fil0" d="M578.65 261.08c-0.12,-11.42 -4.3,-24.72 -19.09,-19.42 -24,8.64 -41.87,13.91 -64.29,1.67 -29.35,-16.05 -36.65,-54.35 -19.25,-80.98 9.13,-13.97 22.4,-22.02 39.79,-24.16 6.55,-0.8 13.72,0.14 20.63,1 8.49,1.04 18.07,5.53 26.14,8.47 2.77,1.01 6.85,0.72 9.24,-1.6 7.99,-7.84 6.89,-18.27 6.91,-30.73 0.07,-37.19 0.12,-74.58 0.16,-112.17 0,-1.75 1.42,-3.17 3.17,-3.17l383.53 0c1.33,0 2.01,0.66 2.01,1.98l-0.03 384.45c0,1.1 -0.54,1.65 -1.62,1.65 -41.99,0.25 -84.04,0.25 -126.15,0.02 -6.36,-0.05 -13.45,-0.9 -17.82,-5.47 -3.34,-3.48 -3.95,-7.77 -1.84,-12.86 6.67,-16.03 11.24,-30.43 8.25,-46.9 -6.12,-34 -41.08,-56.22 -74.31,-43.64 -23.6,8.92 -37.7,30.76 -36.9,56.18 0.38,12.22 4.59,22.04 9.07,34.38 1.7,4.69 1.26,8.74 -1.32,12.14 -4.99,6.56 -15.13,6.23 -23.14,6.26 -38.99,0.1 -79.05,0.1 -120.19,-0.03 -1.17,-0.01 -1.89,-0.6 -2.16,-1.74 -0.3,-1.33 -0.43,-3.03 -0.41,-5.13 0.01,-52.9 -0.12,-92.97 -0.39,-120.21z"/>
   <path class="fil0" d="M2012.24 258.01c7.73,51.29 -29.11,78.53 -74.85,85.03 -38.59,5.47 -81.45,3.29 -119.69,-5.09 -0.67,-0.15 -1,-0.56 -1,-1.24l0 -55.15c0,-0.87 0.43,-1.22 1.28,-1.05 14.91,3.12 25.66,4.84 32.26,5.18 19.63,1.04 39.85,2.78 59.48,2.02 11.8,-0.46 23.18,-0.28 34.68,-3.59 7.31,-2.08 14.48,-8.35 8.9,-16.4 -6.66,-9.56 -22.24,-14.97 -33.02,-17.71 -21.5,-5.47 -45.44,-9.41 -65.03,-19.89 -28.04,-15.01 -40.56,-38.81 -37.59,-71.38 7.45,-81.56 131.88,-70.42 186.36,-56.54 0.61,0.15 0.92,0.54 0.92,1.18l-0.02 54.98c0,0.67 -0.33,0.94 -0.98,0.82 -12.26,-2.39 -24.59,-4.19 -36.98,-5.39 -27.35,-2.66 -53.01,-3.77 -79.14,-0.32 -13.17,1.72 -16.76,15.5 -7.48,23.91 7.72,7 26.53,12.46 36.78,14.83 18.32,4.22 34.16,8.58 47.51,13.07 24.88,8.38 43.51,25.66 47.6,52.74z"/>
   <path class="fil0" d="M4035.81 220.09c-0.41,-84.22 64.42,-135.41 145.74,-126.26 50.47,5.69 89.46,35.26 104.3,85.11 8,26.86 7.46,58.38 -1.28,85.02 -20.53,62.55 -84.77,90.11 -146.89,79.32 -63.31,-11.02 -101.57,-60.15 -101.87,-123.19zm194.36 -10.28c-0.35,-33.33 -27.48,-60.17 -60.81,-60.17 -0.21,0 -0.43,0 -0.64,0l-11.65 0.13c-33.34,0.35 -60.17,27.48 -60.17,60.81 0,0.21 0,0.43 0,0.64l0.19 17.3c0.34,33.33 27.47,60.17 60.8,60.17 0.21,0 0.43,0 0.64,0l11.66 -0.13c33.33,-0.34 60.17,-27.47 60.17,-60.8 0,-0.22 0,-0.43 0,-0.64l-0.18 -17.31z"/>
   <path class="fil0" d="M1285.51 278.07c0.31,2.05 0.71,2.07 1.23,0.06l35.7 -141.62c0.08,-0.36 0.42,-0.63 0.83,-0.64l85.04 0c0.57,0 0.92,0.27 1.06,0.82l33.84 140.7c0.6,2.52 1.11,2.51 1.54,-0.05l30.11 -181.51c0.11,-0.69 0.51,-1.05 1.23,-1.05l57.45 0c0.54,0 0.76,0.27 0.66,0.8l-45.64 247.25c-0.1,0.59 -0.45,0.88 -1.04,0.88l-88.41 0c-0.61,0 -0.99,-0.31 -1.12,-0.9l-31.63 -141.32c-0.46,-2.03 -0.93,-2.04 -1.41,-0.02l-33.64 141.38c-0.14,0.58 -0.5,0.87 -1.1,0.87l-93.36 0c-0.5,-0.01 -0.93,-0.37 -1,-0.87l-39.99 -247.54c0,-0.03 0,-0.05 0,-0.08 0,-0.23 0.19,-0.43 0.43,-0.43 0.01,0 0.01,0 0.01,0l60.53 -0.01c0.75,0 1.18,0.37 1.3,1.11l27.39 182.17z"/>
   <path class="fil0" d="M1645.99 248.32l0 38.05c0,0.42 0.33,0.76 0.76,0.76l122.53 0.01c0.41,0 0.76,0.33 0.76,0.76l-0.04 55.05c0,0.42 -0.34,0.76 -0.77,0.76l-183.39 0.03c-0.41,0 -0.76,-0.34 -0.76,-0.77l0 -247.4c0,-0.42 0.34,-0.76 0.76,-0.76l183.37 -0.01c0.42,0.01 0.76,0.34 0.76,0.77l0.05 55.05c0,0.42 -0.34,0.76 -0.76,0.76l-122.51 0.03c-0.42,0 -0.76,0.34 -0.76,0.76l0 38.05c0,0.42 0.33,0.76 0.76,0.76l98.07 0c0.42,0 0.76,0.34 0.76,0.77l0 55.05c0,0.42 -0.33,0.76 -0.76,0.76l-98.07 0.03c-0.42,0 -0.76,0.33 -0.76,0.76l0 0z"/>
   <path class="fil0" d="M2133.04 287.13l122.65 0c0.4,0 0.72,0.32 0.72,0.72l0 55.15c0,0.4 -0.32,0.72 -0.72,0.72l-183.47 0c-0.4,0 -0.72,-0.32 -0.72,-0.72l-0.02 -247.49c0,-0.4 0.32,-0.72 0.72,-0.72l59.35 0.03c0.4,0 0.72,0.32 0.72,0.72l0.05 190.87c0,0.4 0.32,0.72 0.72,0.72l0 0z"/>
   <path class="fil0" d="M2372.57 152.07l0 38.21c0,0.38 0.31,0.68 0.69,0.68l98.23 0c0.37,0 0.68,0.31 0.68,0.69l0 55.23c0,0.38 -0.31,0.68 -0.68,0.68l-98.23 0.01c-0.38,0 -0.69,0.31 -0.69,0.68l0 38.21c0,0.37 0.31,0.68 0.69,0.68l122.55 0.01c0.37,0 0.68,0.3 0.68,0.68l0 55.23c0,0.38 -0.31,0.69 -0.68,0.69l-183.55 0c-0.38,0 -0.68,-0.31 -0.68,-0.69l-0.01 -247.56c0.01,-0.37 0.31,-0.68 0.69,-0.68l183.55 -0.01c0.37,0.01 0.68,0.32 0.68,0.69l0 55.23c0,0.38 -0.31,0.69 -0.68,0.69l-122.55 0c-0.38,0 -0.69,0.31 -0.69,0.68z"/>
   <path class="fil0" d="M2620.53 251.17c-50.31,-12.35 -77.6,-54.1 -76.99,-104.28 0.2,-17.07 0.39,-34.13 0.56,-51.19 0,-0.6 0.31,-0.9 0.92,-0.9l58.97 0c0.64,0 0.96,0.32 0.98,0.96 0.05,19.27 0.05,38.48 0.02,57.62 -0.08,35.36 31.63,50.61 62.15,43.03 22.26,-5.51 31.11,-24.58 31.23,-46.02 0.12,-18.32 0.14,-36.59 0.04,-54.8 0,-0.44 0.36,-0.8 0.8,-0.8l59.07 0c0.65,0 0.98,0.33 1,1.01 0.17,14.72 0.19,29.4 0.05,44.05 -0.15,17.94 -1.31,31.21 -3.46,39.81 -8.51,33.83 -36.18,63.85 -72.1,71.47 -0.69,0.16 -1.15,0.77 -1.15,1.46l0.02 90.14c0,0.65 -0.32,0.98 -0.98,0.98l-59.56 -0.03c-0.26,0 -0.48,-0.21 -0.48,-0.48l0 -90.67c0,-0.66 -0.44,-1.23 -1.07,-1.38l-0.01 0z"/>
   <path class="fil0" d="M3116.22 216.6c3.59,3.13 7.84,6.29 10.68,9.6 39.47,45.59 4.61,105.19 -48.04,115.81 -5.6,1.14 -15.33,1.7 -29.19,1.68 -39.06,0 -78.07,0 -117.06,0 -0.29,0 -0.52,-0.23 -0.52,-0.51l0 -247.36c0,-0.64 0.32,-0.96 0.96,-0.96 40.83,-0.12 81.57,-0.11 122.23,0.02 15.56,0.06 30.27,3.67 43.43,12.07 38.33,24.42 50.73,72.86 17.43,108 -0.54,0.59 -0.51,1.15 0.08,1.66zm-123.23 -64.33l-0.13 37.55c0,0.6 0.5,1.1 1.11,1.1l60.44 0.22c11.22,0 20.26,-8.89 20.26,-19.85 0,-0.01 0,-0.01 0,-0.01l0 0.03c-0.01,-11.03 -9.05,-19.91 -20.2,-19.91 0,0 -0.01,0 -0.01,0l-60.37 -0.23c-0.61,0 -1.1,0.5 -1.1,1.1zm-0.13 96.89l-0.07 36.3c0,1.03 0.83,1.87 1.86,1.87l67.79 0.12c0.04,0 0.05,0 0.05,0 11.2,0 20.29,-8.87 20.29,-19.81l0 -0.36c0,-0.04 0,-0.05 0,-0.05 0,-10.94 -9.08,-19.81 -20.29,-19.81l-67.76 -0.12c-1.03,0 -1.87,0.83 -1.87,1.87z"/>
   <path class="fil0" d="M3263.59 228.65l0.02 113.59c0,0.97 -0.49,1.46 -1.46,1.46l-58.56 0c-0.66,0 -0.98,-0.32 -0.98,-0.97l0 -247.41c0,-0.3 0.24,-0.54 0.54,-0.54 39.34,-0.01 78.71,0.13 118.12,0.42 25.26,0.19 45.93,8.77 62.01,25.76 39.49,41.73 25.58,106.44 -26.19,129.96 -0.41,0.19 -0.68,0.6 -0.68,1.06 0,0.24 0.07,0.49 0.22,0.69l67.27 90.08c0.47,0.64 0.31,0.96 -0.5,0.96l-71.24 0c-1.21,0 -2.16,-0.48 -2.87,-1.43l-84.47 -114.02c-0.82,-1.11 -1.24,-0.97 -1.24,0.41zm0 -75.19l-0.08 56.86c0,0 0,0 0,0 0,0.66 0.52,1.19 1.18,1.2l57.05 0.1c0.05,0 0.05,0 0.06,0 15.66,0 28.36,-12.4 28.37,-27.69l0 -3.81c0,-0.05 0,-0.05 0,-0.05 0,-15.29 -12.7,-27.7 -28.36,-27.71l-57.01 -0.1c-0.01,0 -0.01,0 -0.02,0 -0.66,0 -1.2,0.54 -1.2,1.2 0,0 0,0 0,0l0 0.01z"/>
   <path class="fil0" d="M3559.71 285.97c36.14,11.94 66.6,-6.93 66.4,-45.94 -0.27,-48 -0.41,-96.04 -0.42,-144.12 0,-0.72 0.37,-1.08 1.1,-1.08l58.61 0c0.74,0 1.12,0.36 1.12,1.1 0.12,48.89 0.17,97.77 0.16,146.61 -0.05,137.8 -215.39,138.03 -215.51,-0.48 -0.03,-48.97 -0.01,-97.92 0.06,-146.87 0,-0.24 0.13,-0.36 0.38,-0.36l59.99 0c0.3,0 0.54,0.24 0.54,0.54 -0.03,49.68 -0.03,99.41 0,149.19 0.02,18.02 9.51,35.45 27.59,41.42z"/>
   <path class="fil0" d="M3912.21 238.68l0 -143.22c0,-0.35 0.29,-0.64 0.64,-0.64l59.54 0c0.35,0 0.64,0.29 0.64,0.64l0 247.6c0,0.35 -0.29,0.64 -0.64,0.64l-59.92 0c0,0 -0.01,0 -0.01,0 -0.22,0 -0.41,-0.1 -0.53,-0.28l-96.15 -143.76c-0.12,-0.19 -0.32,-0.3 -0.54,-0.3 -0.35,0 -0.64,0.28 -0.64,0.63l0 143.07c0,0.35 -0.29,0.64 -0.64,0.64l-59.76 0c-0.35,0 -0.64,-0.29 -0.64,-0.64l0.02 -247.6c0,-0.35 0.29,-0.64 0.64,-0.64l59.99 0c0,0 0,0 0.01,0 0.21,0 0.41,0.1 0.53,0.28l96.28 143.92c0.12,0.19 0.32,0.3 0.54,0.3 0.35,0 0.64,-0.28 0.64,-0.63l0 -0.01z"/>
   <path class="fil0" d="M2771.93 465.55l-31.63 42.17c-0.14,0.18 -0.34,0.28 -0.56,0.28l-51.35 0c-0.39,0 -0.7,-0.32 -0.7,-0.7 0,-0.14 0.05,-0.3 0.14,-0.41l31.63 -42.18c0.14,-0.17 0.34,-0.28 0.57,-0.28l51.35 0c0.39,0 0.7,0.32 0.7,0.7 0,0.15 -0.05,0.3 -0.14,0.41l0 0.01z"/>
   <path class="fil0" d="M579.35 838.57c0.16,-17.35 9.3,-22.7 24.74,-15.73 27.78,12.54 59.82,6.75 77.49,-17.91 6.68,-9.32 9.93,-19.77 9.76,-31.34 -0.52,-35.26 -28.89,-60.43 -64.65,-56.33 -10.38,1.2 -20.81,5.56 -31.07,9.13 -4.53,1.58 -8.36,0.9 -11.4,-3.08 -3.49,-4.58 -5.24,-9.41 -5.25,-14.46 -0.19,-41.91 -0.21,-83.86 -0.06,-125.86 0.02,-2.83 1.43,-4.25 4.27,-4.25 39.35,-0.08 78.55,-0.12 117.63,-0.1 9.32,0 24.16,0.32 25.86,-11.62 0.4,-2.8 -0.62,-7.26 -3.07,-13.36 -12.5,-31.37 -7.46,-63.2 22.12,-80.46 7.95,-4.64 16.75,-6.98 26.39,-7.01 37.56,-0.08 63.57,33.59 56.01,69.86 -1.09,5.33 -2.87,11.09 -5.33,17.29 -2.36,5.96 -3.53,9.92 -3.53,11.88 0.06,9.44 10.56,13.41 18.77,13.43 40.73,0.06 81.47,0.08 122.21,0.04 2.28,0 4.05,0.21 5.29,0.62 1.37,0.47 2.07,1.42 2.07,2.87l-0.03 382.21c0,1.62 -1.31,2.94 -2.92,2.94l-382.56 0c-1.79,0 -3.26,-1.46 -3.26,-3.26 -0.05,-41.92 0.13,-83.76 0.52,-125.49z"/>
   <path class="fil0" d="M2183.94 636.75l82.02 113.21c0.42,0.6 0.64,1.28 0.64,2.03 0.03,17.1 0.04,34.16 0.02,51.18 -0.01,11.37 -0.92,20.17 -2.72,26.43 -17.85,61.38 -105.43,62.74 -123.91,0.07 -1.84,-6.2 -2.76,-15.07 -2.76,-26.58 0,-14.05 0,-28.09 0.02,-42.13 0,-0.68 0.33,-1.02 1.02,-1.02l44 0c0.62,0 0.94,0.31 0.94,0.94 0.1,16.62 0.12,33.16 0.06,49.62 -0.1,26.12 37.32,26.47 37.44,0.52 0.07,-14.72 0.09,-29.28 0.06,-43.69 0,-0.52 -0.15,-0.99 -0.46,-1.41l-82.5 -113.88c-0.33,-0.46 -0.53,-1.05 -0.54,-1.64 -0.05,-17.38 -0.05,-34.81 0,-52.29 0.03,-11.23 0.98,-19.78 2.87,-25.66 19.71,-61.78 108.74,-59.53 124.43,4.09 1.22,4.92 1.88,12.38 1.98,22.35 0.17,14.58 0.17,29.18 0,43.77 -0.01,0.71 -0.37,1.06 -1.08,1.06l-43.57 0c-0.72,0 -1.08,-0.36 -1.08,-1.08 -0.11,-13.53 -0.12,-27.03 -0.04,-40.49 0.05,-8.17 -0.46,-13.76 -1.54,-16.76 -6.97,-19.32 -35.54,-13.82 -35.88,8.07 -0.22,13.85 -0.22,27.68 0,41.51 0.01,0.66 0.21,1.24 0.6,1.77z"/>
   <path class="fil0" d="M3317.2 694.32l-24.48 0c-0.66,0 -0.98,-0.33 -0.98,-1l-0.02 -44.1c0,-0.69 0.34,-1.02 1.02,-1.02l71.01 0.14c0.53,0 0.8,0.27 0.8,0.8 0.12,54.96 0.22,110.09 0.3,165.38 0.06,35.82 -23.74,60.18 -58.3,63.02 -40.09,3.31 -71.94,-21.11 -71.88,-63.02 0.09,-67.58 0.14,-135.17 0.15,-202.74 0,-20.62 0.73,-33.65 2.19,-39.09 4.84,-17.97 19.41,-33.57 37.52,-40.33 10.04,-3.75 22.84,-3.71 33.75,-3.08 28.99,1.62 49.61,22.01 55.59,50.26 1.26,5.85 1.46,16.75 0.6,32.67 -0.04,0.64 -0.38,0.96 -1.02,0.96l-44.18 0c-0.69,0 -1.02,-0.34 -1.02,-1.05 0.05,-6.64 0.04,-13.24 -0.05,-19.81 -0.12,-9.45 -2.34,-16.06 -12.46,-17.04 -16.3,-1.57 -25,0.9 -25,18.39 0.01,72.73 0.01,145.45 0,218.16 0,5.67 0.59,9.72 1.76,12.14 4.97,10.14 28.13,10.7 33.58,1.16 1.4,-2.43 2.11,-6.29 2.12,-11.58 0.16,-39.42 0.15,-78.82 -0.02,-118.22 0,-0.67 -0.33,-1 -1,-1z"/>
   <path class="fil0" d="M2898.83 829.06l64.15 0c0.37,-0.01 0.68,0.3 0.68,0.68l-0.02 43.21c0,0.37 -0.31,0.68 -0.69,0.68l-108.66 -0.02c-0.37,0 -0.68,-0.31 -0.68,-0.68l0 -339.2c0,-0.38 0.31,-0.69 0.68,-0.69l43.18 0c0.38,0 0.68,0.31 0.68,0.69l0 294.64c0,0.37 0.31,0.68 0.69,0.68l0 0.01z"/>
   <path class="fil0" d="M2659.6 571.59c20.17,-44.38 82.12,-51.99 110.65,-10.9 10.22,14.71 11.54,28.23 11.56,47.9 0.05,66.65 0.06,133.29 0.06,199.92 0,24.43 -12.08,45.28 -33.08,57.34 -34.96,20.11 -80.09,1.36 -91.54,-36.95 -2.06,-6.91 -3.08,-18.93 -3.07,-36.08 0.03,-66.57 0.03,-133.13 0,-199.69 -0.01,-6.41 1.79,-13.59 5.41,-21.55zm77.14 25.4c0,-10.05 -8.16,-18.22 -18.22,-18.22l-0.56 0c-10.06,0 -18.22,8.16 -18.22,18.22l0 213.24c0,10.05 8.15,18.22 18.22,18.22l0.56 0c10.05,0 18.22,-8.16 18.22,-18.22l0 -213.24z"/>
   <path class="fil0" d="M3163 812.02c-0.02,37.6 -36.83,66.91 -73.25,61.23 -24.16,-3.79 -44.39,-20.92 -51.36,-44.54 -2,-6.77 -2.99,-18.65 -2.97,-35.62 0.08,-65.5 0.08,-130.98 0,-196.44 -0.05,-38.41 34.58,-67.52 72.19,-62.27 26.02,3.65 46.51,21.12 53.07,46.6 1.56,6.11 2.34,17.29 2.34,33.52 0,65.85 -0.01,131.68 -0.02,197.51zm-45.24 -215.04c-0.02,-10.04 -8.16,-18.16 -18.2,-18.16 -0.01,0 -0.02,0 -0.03,0l-0.64 0c-10.04,0.01 -18.16,8.15 -18.16,18.19 0,0.01 0,0.02 0,0.03l0.37 213.21c0.02,10.03 8.16,18.15 18.2,18.15 0.01,0 0.02,0 0.03,0l0.64 0c10.04,-0.02 18.16,-8.16 18.16,-18.19 0,-0.01 0,-0.03 0,-0.04l-0.37 -213.2z"/>
   <path class="fil0" d="M3555.51 842.26c-29.43,47.74 -101.56,39.87 -116.4,-14.95 -1.75,-6.44 -2.62,-18.03 -2.61,-34.77 0.04,-62.04 0.05,-124.09 0.04,-186.14 0,-12.86 0.87,-22.27 2.62,-28.25 8.66,-29.41 40.31,-48.22 69.58,-43.85 25.94,3.89 46.3,20.99 52.97,46.4 1.63,6.2 2.44,17.25 2.44,33.16 0.03,66.23 0.03,132.46 -0.02,198.69 0,10.51 -2.88,20.42 -8.63,29.73zm-36.24 -245.24c0,-0.01 0,-0.02 0,-0.03 0,-10.04 -8.12,-18.18 -18.16,-18.19l-0.64 0c-0.01,-0.01 -0.02,-0.01 -0.03,-0.01 -10.04,0 -18.18,8.13 -18.19,18.16l-0.38 213.25c0,0.01 0,0.02 0,0.03 0,10.04 8.12,18.18 18.16,18.19l0.64 0.01c0.01,-0.01 0.03,-0.01 0.04,-0.01 10.03,0 18.17,-8.12 18.19,-18.15l0.37 -213.25z"/>
   <path class="fil0" d="M2339.11 534.04l43.92 0c0.31,0 0.56,0.25 0.56,0.56l0 336.46c0,0.32 -0.25,0.56 -0.56,0.56l-43.92 0.01c-0.31,-0.01 -0.56,-0.25 -0.56,-0.57l0 -336.45c0,-0.32 0.25,-0.57 0.56,-0.57z"/>
   <path class="fil0" d="M1983.87 803.59l-0.03 68.6c0,0.63 -0.31,0.94 -0.92,0.94l-43.05 -0.02c-0.69,0 -1.02,-0.34 -1.02,-1.02l0 -336.03c0,-0.69 0.33,-1.03 1.02,-1.03 23,-0.06 45.88,0.07 68.63,0.42 22.48,0.35 38.99,9.92 49.54,28.71 4.98,8.86 7.45,19.03 7.44,30.49 -0.07,50.08 -0.08,100.17 -0.05,150.25 0.02,12.04 -3.39,22.96 -10.22,32.76 -18.41,26.42 -41.63,24.78 -70.36,24.92 -0.67,0.01 -1,0.34 -1,1zm25.6 -46.3c6.57,-0.59 10.94,-5.26 10.94,-11.89 0.05,-51.38 0.05,-102.76 0.02,-154.12 0,-4.29 -1.75,-7.43 -5.27,-9.41 -6.11,-3.47 -22.88,-1.79 -30.31,-1.72 -0.66,0 -0.98,0.32 -0.98,0.97l0 175.09c-0.01,0.58 0.45,1.06 1.03,1.07 12.55,0.35 20.74,0.35 24.57,0.01z"/>
   <path class="fil0" d="M2535.44 591.01c-8.05,-17.81 -35.05,-11.74 -35.05,7.15 -0.02,70.27 -0.02,140.57 0,210.86 0,24.48 38,24.8 37.06,-3 -0.15,-4.47 -0.13,-13.17 0.05,-26.09 0,-0.64 0.32,-0.96 0.96,-0.96l43 0c0.67,0 1,0.33 1,0.98 0.1,13.71 1.04,29.73 -1.52,41.93 -13.3,63.27 -103.9,68.86 -122.71,5.67 -1.92,-6.48 -2.89,-16.59 -2.9,-30.34 -0.01,-62.8 -0.01,-125.6 0,-188.4 0,-13.9 0.99,-23.9 2.97,-30.01 7.21,-22.32 26.68,-38.91 50.1,-42.46 20.66,-3.14 38.54,2.25 53.64,16.19 19.07,17.61 21.88,39.24 20.19,64.39 -0.04,0.51 -0.32,0.77 -0.82,0.77l-42.97 0c-0.69,0 -1.03,-0.35 -1.03,-1.05 0.06,-8.21 1.13,-18.83 -1.97,-25.64z"/>
   <path class="fil0" d="M131.68 579.38c8.84,0.72 18.63,5.91 15.47,16.69 -1.5,5.14 -3.14,10.22 -4.92,15.22 -5.85,16.53 -5.77,34.04 2.2,49.71 20.24,39.75 77.6,40.03 99,0.23 11.48,-21.36 6.62,-40.87 -1.61,-61.25 -6.52,-16.07 7.63,-20.88 21.24,-20.96 40.23,-0.24 80.83,-0.37 121.82,-0.38 -0.04,0 -0.04,0 -0.04,0 1.83,-0.04 3.34,1.42 3.36,3.26 0,0 0,0.01 0,0.01 0.05,39.21 0.09,78.85 0.1,118.92 0,12.06 1.54,31.23 19.69,24.7 14.53,-5.21 26.27,-9.86 43.29,-8.41 7.07,0.6 15.84,4 21.25,7.07 29.97,17.02 37.99,60 14.38,85.79 -17.01,18.57 -42.51,23.78 -65.99,15.34 -5.18,-1.86 -10.4,-3.55 -15.66,-5.09 -9.02,-2.62 -14.58,3.66 -15.61,12 -0.57,4.78 -0.87,9.56 -0.9,14.34 -0.21,38.07 -0.34,76.14 -0.4,114.2 0,1.97 -0.17,3.63 -0.52,4.97 -0.28,1.06 -0.96,1.58 -2.07,1.58l-383.19 0c-1.42,0 -2.57,-1.15 -2.57,-2.56l-0.02 -382.57c0,-1.95 1.59,-3.53 3.55,-3.53l111.75 0.02c5.18,0 10.64,0.23 16.39,0.7z"/>
  </g>
 </g>
</svg>
