<?xml version="1.0" encoding="UTF-8"?>
<!DOCTYPE svg PUBLIC "-//W3C//DTD SVG 1.1//EN" "http://www.w3.org/Graphics/SVG/1.1/DTD/svg11.dtd">
<!-- Creator: CorelDRAW 2020 (64 Bit) -->
<svg xmlns="http://www.w3.org/2000/svg" xml:space="preserve" width="8.1422mm" height="8.14mm" version="1.1" style="shape-rendering:geometricPrecision; text-rendering:geometricPrecision; image-rendering:optimizeQuality; fill-rule:evenodd; clip-rule:evenodd"
viewBox="0 0 153.34 153.3"
 xmlns:xlink="http://www.w3.org/1999/xlink"
 xmlns:xodm="http://www.corel.com/coreldraw/odm/2003">
 <defs>
  <style type="text/css">
   <![CDATA[
    .fil0 {fill:#FEFEFE;fill-rule:nonzero}
   ]]>
  </style>
 </defs>
 <g id="Camada_x0020_1">
  <metadata id="CorelCorpID_0Corel-Layer"/>
  <path class="fil0" d="M20.2 61.5c-6.64,0.04 -13.26,0.04 -19.87,-0.01 -0.18,0 -0.33,-0.15 -0.33,-0.33 0,0 0,0 0,0l0 -61.02c0,-0.08 0.06,-0.14 0.14,-0.14l61.07 0c0.18,0 0.33,0.15 0.33,0.33 0,6.56 -0.02,13.15 -0.08,19.77 -0.01,1.4 -0.53,4.02 -2.56,3.3 -2.25,-0.79 -4.41,-1.79 -6.89,-1.56 -2.89,0.27 -5.12,1.53 -6.67,3.76 -2.61,3.75 -2,8.77 1.42,11.77 3.39,2.97 7.2,2.61 11.13,1.01 3.05,-1.24 3.66,1.13 3.66,3.53 -0,6.25 -0.01,12.62 -0.02,19.12 0,0.22 -0.11,0.36 -0.33,0.4 -0.18,0.04 -0.41,0.05 -0.7,0.05 -5.82,0.03 -11.63,0.03 -17.45,0.02 -1.88,-0.01 -5.97,-0.1 -4.76,3.19 0.68,1.87 1.09,3.28 1.23,4.24 0.47,3.22 -0.43,5.88 -2.69,7.96 -1.44,1.32 -3.08,2.11 -4.95,2.36 -5.19,0.69 -9.59,-3.03 -9.97,-8.26 -0.18,-2.42 0.45,-4.07 1.44,-6.7 0.74,-1.96 -1.73,-2.83 -3.16,-2.82z"/>
  <path class="fil0" d="M91.7 41.38c-0.02,-1.81 -0.68,-3.92 -3.03,-3.08 -3.8,1.37 -6.64,2.2 -10.19,0.26 -4.65,-2.54 -5.81,-8.61 -3.05,-12.83 1.45,-2.21 3.55,-3.49 6.31,-3.83 1.04,-0.13 2.18,0.02 3.27,0.16 1.35,0.17 2.86,0.88 4.14,1.34 0.44,0.16 1.09,0.11 1.47,-0.25 1.27,-1.24 1.09,-2.89 1.09,-4.87 0.01,-5.89 0.02,-11.82 0.03,-17.78 0,-0.28 0.22,-0.5 0.5,-0.5l60.78 0c0.21,0 0.32,0.1 0.32,0.31l-0 60.93c0,0.18 -0.08,0.26 -0.26,0.26 -6.66,0.04 -13.32,0.04 -19.99,0 -1.01,-0.01 -2.13,-0.14 -2.82,-0.87 -0.53,-0.55 -0.63,-1.23 -0.29,-2.04 1.06,-2.54 1.78,-4.82 1.31,-7.43 -0.97,-5.39 -6.51,-8.91 -11.78,-6.92 -3.74,1.41 -5.98,4.87 -5.85,8.9 0.06,1.94 0.73,3.49 1.44,5.45 0.27,0.74 0.2,1.38 -0.21,1.92 -0.79,1.04 -2.4,0.99 -3.67,0.99 -6.18,0.02 -12.53,0.02 -19.05,-0 -0.19,-0 -0.3,-0.09 -0.34,-0.27 -0.05,-0.21 -0.07,-0.48 -0.07,-0.81 0,-8.38 -0.02,-14.73 -0.06,-19.05z"/>
  <path class="fil0" d="M91.81 132.89c0.02,-2.75 1.47,-3.6 3.92,-2.49 4.4,1.99 9.48,1.07 12.28,-2.84 1.06,-1.48 1.57,-3.13 1.55,-4.97 -0.08,-5.59 -4.58,-9.58 -10.25,-8.93 -1.64,0.19 -3.3,0.88 -4.92,1.45 -0.72,0.25 -1.32,0.14 -1.81,-0.49 -0.55,-0.73 -0.83,-1.49 -0.83,-2.29 -0.03,-6.64 -0.03,-13.29 -0.01,-19.94 0,-0.45 0.23,-0.67 0.68,-0.67 6.24,-0.01 12.45,-0.02 18.64,-0.02 1.48,0 3.83,0.05 4.1,-1.84 0.06,-0.44 -0.1,-1.15 -0.49,-2.12 -1.98,-4.97 -1.18,-10.02 3.5,-12.75 1.26,-0.74 2.66,-1.11 4.18,-1.11 5.95,-0.01 10.08,5.32 8.88,11.07 -0.17,0.84 -0.46,1.76 -0.85,2.74 -0.37,0.95 -0.56,1.57 -0.56,1.88 0.01,1.5 1.67,2.12 2.97,2.13 6.46,0.01 12.91,0.01 19.37,0.01 0.36,0 0.64,0.03 0.84,0.1 0.22,0.08 0.33,0.23 0.33,0.46l-0 60.57c0,0.26 -0.21,0.47 -0.46,0.47l-60.63 0c-0.28,0 -0.52,-0.23 -0.52,-0.52 -0.01,-6.64 0.02,-13.27 0.08,-19.89z"/>
  <path class="fil0" d="M20.87 91.82c1.4,0.11 2.95,0.94 2.45,2.64 -0.24,0.82 -0.5,1.62 -0.78,2.41 -0.93,2.62 -0.92,5.39 0.35,7.88 3.21,6.3 12.3,6.34 15.69,0.04 1.82,-3.38 1.05,-6.48 -0.26,-9.71 -1.03,-2.55 1.21,-3.31 3.37,-3.32 6.37,-0.04 12.81,-0.06 19.31,-0.06 -0.01,0 -0.01,0 -0.01,0 0.29,-0.01 0.53,0.23 0.53,0.52 0,0 0,0 0,0 0.01,6.21 0.01,12.49 0.02,18.84 0,1.91 0.24,4.95 3.12,3.91 2.3,-0.82 4.16,-1.56 6.86,-1.33 1.12,0.09 2.51,0.63 3.37,1.12 4.75,2.69 6.02,9.51 2.28,13.6 -2.7,2.94 -6.74,3.77 -10.46,2.43 -0.82,-0.29 -1.65,-0.56 -2.48,-0.81 -1.43,-0.42 -2.31,0.58 -2.47,1.9 -0.09,0.76 -0.14,1.52 -0.14,2.28 -0.03,6.03 -0.05,12.06 -0.06,18.1 0,0.31 -0.03,0.58 -0.08,0.79 -0.04,0.17 -0.15,0.25 -0.33,0.25l-60.73 0c-0.22,0 -0.41,-0.18 -0.41,-0.41l-0 -60.63c0,-0.31 0.25,-0.56 0.56,-0.56l17.71 0c0.82,0 1.69,0.04 2.6,0.11z"/>
 </g>
</svg>
