<?xml version="1.0" encoding="UTF-8"?>
<!DOCTYPE svg PUBLIC "-//W3C//DTD SVG 1.1//EN" "http://www.w3.org/Graphics/SVG/1.1/DTD/svg11.dtd">
<!-- Creator: CorelDRAW 2021 (64 Bit) -->
<svg xmlns="http://www.w3.org/2000/svg" xml:space="preserve" width="47.588mm" height="8.135mm" version="1.1" style="shape-rendering:geometricPrecision; text-rendering:geometricPrecision; image-rendering:optimizeQuality; fill-rule:evenodd; clip-rule:evenodd"
viewBox="0 0 4623.9 790.44"
 xmlns:xlink="http://www.w3.org/1999/xlink"
 xmlns:xodm="http://www.corel.com/coreldraw/odm/2003">
 <defs>
  <style type="text/css">
   <![CDATA[
    .fil0 {fill:#373435;fill-rule:nonzero}
    .fil1 {fill:#373435;fill-rule:nonzero;fill-opacity:0.501961}
   ]]>
  </style>
 </defs>
 <g id="Camada_x0020_1">
  <metadata id="CorelCorpID_0Corel-Layer"/>
  <g id="_1805457516544">
   <path class="fil0" d="M74.4 74.42l0 0c99.22,-99.22 260.11,-99.22 359.32,-0.02l282.3 282.33c99.22,99.19 99.22,260.08 0.01,359.29l-0.01 0.02c-99.2,99.2 -260.09,99.2 -359.3,-0.01l-282.32 -282.31c-99.2,-99.2 -99.2,-260.09 0.01,-359.3z"/>
   <polygon class="fil1" points="767.38,33.37 767.38,293.19 507.56,33.37 "/>
   <polygon class="fil0" points="35.17,765.57 35.17,505.75 294.98,765.57 "/>
   <path class="fil0" d="M1154.37 682.38l247.15 0c129.94,0 199.14,-67.35 199.14,-158.86 0,-85.05 -61.29,-136.41 -127.1,-139.5l0 -5.62c60.16,-13.47 104.51,-55.85 104.51,-123.5 0,-86.17 -64.4,-147.35 -192.08,-147.35l-231.62 0 0 574.82zm122.3 -99.35l0 -152.7 102.54 0c58.76,0 95.19,33.69 95.19,81.12 0,43.22 -29.66,71.57 -98.02,71.57l-99.71 0zm0 -234.93l0 -142.31 92.94 0c54.23,0 85.02,27.79 85.02,69.33 0,45.47 -37.29,72.98 -87.28,72.98l-90.67 0z"/>
   <path class="fil0" d="M1956.22 498.83c0.28,57.81 -39.55,88.13 -82.76,88.13 -45.48,0 -74.86,-31.71 -75.14,-82.52l0 -253.16 -120.34 0 0 274.5c0.29,100.76 59.6,162.23 146.88,162.23 65.26,0 112.14,-33.4 131.63,-83.92l4.52 0 0 78.31 115.53 0 0 -431.11 -120.33 0 0 247.56z"/>
   <path class="fil0" d="M2533.79 374.2c-10.72,-79.43 -75.13,-128.55 -184.73,-128.55 -111.01,0 -184.17,51.08 -183.89,134.17 -0.28,64.56 40.67,106.38 125.42,123.22l75.13 14.88c37.86,7.58 55.08,21.33 55.65,42.94 -0.56,25.54 -28.53,43.79 -70.61,43.79 -42.94,0 -71.46,-18.25 -78.81,-53.33l-118.36 6.18c11.3,82.51 81.92,133.32 196.88,133.32 112.43,0 192.94,-56.98 193.22,-142.02 -0.28,-62.31 -41.27,-99.64 -125.42,-116.76l-78.53 -15.72c-40.39,-8.71 -55.36,-22.45 -55.08,-43.22 -0.28,-25.83 29.09,-42.67 66.38,-42.67 41.8,0 66.66,22.74 72.59,50.52l110.16 -6.73z"/>
   <path class="fil0" d="M2619.45 682.38l120.34 0 0 -431.11 -120.34 0 0 431.11zm60.45 -486.69c35.88,0 65.25,-27.23 65.25,-60.62 0,-33.12 -29.36,-60.35 -65.25,-60.35 -35.58,0 -64.96,27.23 -64.96,60.35 0,33.4 29.38,60.62 64.96,60.62z"/>
   <path class="fil0" d="M2956.51 433.14c0.28,-55.57 33.6,-88.13 82.19,-88.13 48.3,0 77.37,31.43 77.09,84.2l0 253.16 120.35 0 0 -274.5c0,-100.48 -59.31,-162.23 -149.7,-162.23 -64.4,0 -111.01,31.43 -130.49,81.68l-5.09 0 0 -76.06 -114.68 0 0 431.11 120.34 0 0 -249.24z"/>
   <path class="fil0" d="M3528.7 690.81c107.33,0 179.65,-51.93 196.59,-131.92l-111.29 -7.3c-12.14,32.84 -43.22,49.96 -83.32,49.96 -60.15,0 -98.28,-39.58 -98.28,-103.85l0 -0.28 295.44 0 0 -32.84c0,-146.51 -89.27,-218.92 -203.95,-218.92 -127.67,0 -210.42,90.1 -210.42,223.14 0,136.69 81.63,222.01 215.23,222.01zm-96.3 -267.49c2.52,-49.12 40.1,-88.41 93.47,-88.41 52.27,0 88.41,37.05 88.69,88.41l-182.17 0z"/>
   <path class="fil0" d="M4167.38 374.2c-10.75,-79.43 -75.15,-128.55 -184.74,-128.55 -111.01,0 -184.18,51.08 -183.89,134.17 -0.28,64.56 40.67,106.38 125.43,123.22l75.12 14.88c37.85,7.58 55.09,21.33 55.66,42.94 -0.56,25.54 -28.54,43.79 -70.62,43.79 -42.93,0 -71.46,-18.25 -78.82,-53.33l-118.34 6.18c11.29,82.51 81.91,133.32 196.88,133.32 112.42,0 192.91,-56.98 193.2,-142.02 -0.29,-62.31 -41.24,-99.64 -125.41,-116.76l-78.54 -15.72c-40.38,-8.71 -55.35,-22.45 -55.06,-43.22 -0.28,-25.83 29.1,-42.67 66.37,-42.67 41.8,0 66.67,22.74 72.6,50.52l110.17 -6.73z"/>
   <path class="fil0" d="M4614 374.2c-10.73,-79.43 -75.13,-128.55 -184.72,-128.55 -111,0 -184.17,51.08 -183.89,134.17 -0.28,64.56 40.66,106.38 125.4,123.22l75.15 14.88c37.84,7.58 55.06,21.33 55.63,42.94 -0.56,25.54 -28.51,43.79 -70.59,43.79 -42.94,0 -71.46,-18.25 -78.82,-53.33l-118.37 6.18c11.32,82.51 81.94,133.32 196.91,133.32 112.42,0 192.91,-56.98 193.19,-142.02 -0.28,-62.31 -41.24,-99.64 -125.4,-116.76l-78.54 -15.72c-40.39,-8.71 -55.35,-22.45 -55.07,-43.22 -0.28,-25.83 29.08,-42.67 66.38,-42.67 41.8,0 66.67,22.74 72.57,50.52l110.17 -6.73z"/>
  </g>
 </g>
</svg>
